<svg id="Слой_1" data-name="Слой 1" xmlns="http://www.w3.org/2000/svg" viewBox="0 0 223.5 217.76"><defs><style>.cls-1{fill:#fff;}.cls-2{fill:#a6a4a4;}.cls-3{fill:#4d4e4e;}.cls-4{fill:#f0585c;}.cls-5{fill:#231f20;}</style></defs><title>icons</title><path id="vk" class="cls-1" d="M53.13,54c1-.31,2.18,2,3.49,2.94a2.46,2.46,0,0,0,1.72.54l3.48-.05s1.81-.12,1-1.56a11.58,11.58,0,0,0-2.58-3c-2.18-2-1.88-1.71.74-5.24,1.59-2.16,2.23-3.47,2-4s-1.36-.4-1.36-.4l-3.91,0a.8.8,0,0,0-.86.51,23.09,23.09,0,0,1-1.44,3.08c-1.74,3-2.44,3.15-2.72,3-.67-.43-.5-1.74-.5-2.66,0-2.9.43-4.11-.84-4.42a6.83,6.83,0,0,0-1.83-.18,8.33,8.33,0,0,0-3.25.33c-.44.22-.78.71-.58.74a1.75,1.75,0,0,1,1.16.58A3.88,3.88,0,0,1,47.22,46s.23,3.41-.54,3.84c-.53.29-1.25-.31-2.8-3a25.07,25.07,0,0,1-1.4-2.92,1.09,1.09,0,0,0-.32-.44,1.58,1.58,0,0,0-.6-.25l-3.72,0a1.22,1.22,0,0,0-.76.26c-.18.22,0,.67,0,.67S40,51,43.27,54.46a8.82,8.82,0,0,0,6.45,3h1.56a1.28,1.28,0,0,0,.7-.31,1.11,1.11,0,0,0,.22-.69S52.17,54.32,53.13,54Z" transform="translate(-37 -38.99)"/><path id="fb" class="cls-1" d="M156,43V39h-4a4,4,0,0,0-4,4v4h-4v4h4V61h4V51h4V47h-4V43Z" transform="translate(-37 -38.99)"/><g id="cart"><circle class="cls-2" cx="10" cy="118.51" r="1.5"/><circle class="cls-2" cx="18" cy="118.51" r="1.5"/><polygon class="cls-2" points="20.5 107.01 9.57 107.01 9.15 105.01 5.5 105.01 5.5 107.01 7.54 107.01 9.52 116.01 20.5 116.01 20.5 114.01 14.95 114.01 20.5 111.96 20.5 107.01"/></g><polygon id="checkbox-outline" class="cls-1" points="122.2 100.01 112.52 109.69 108.97 106.15 103.31 111.8 112.52 121.01 127.86 105.67 122.2 100.01"/><path id="checkbox-on" class="cls-3" d="M144.56,146.56l-2.83,2.83,7.78,7.78,13.94-13.93-2.83-2.83-11.11,11.1Z" transform="translate(-37 -38.99)"/><path id="close-cross" class="cls-4" d="M252.83,149.5l7.37-7.37a1,1,0,0,0,0-1.41l-1.42-1.42a1,1,0,0,0-1.41,0L250,146.67l-7.37-7.37a1,1,0,0,0-1.42,0l-1.41,1.42a1,1,0,0,0,0,1.41l7.37,7.37-7.37,7.37a1,1,0,0,0,0,1.42l1.42,1.41a1,1,0,0,0,1.41,0l7.37-7.37,7.37,7.37a1,1,0,0,0,1.42,0l1.41-1.41a1,1,0,0,0,0-1.42Z" transform="translate(-37 -38.99)"/><path id="insta" class="cls-1" d="M257.5,40h-15a3,3,0,0,0-3,3V58a3,3,0,0,0,3,3h15a3,3,0,0,0,3-3V43A3,3,0,0,0,257.5,40ZM250,47a3.5,3.5,0,1,1-3.5,3.5A3.5,3.5,0,0,1,250,47Zm7.5,11h-15V49h1.18a6.34,6.34,0,0,0-.18,1.5,6.5,6.5,0,1,0,13,0,6.34,6.34,0,0,0-.18-1.5h1.18Zm0-11h-4V43h4Z" transform="translate(-37 -38.99)"/><path id="icon-up" class="cls-5" d="M50,243.63l-5.5,10h11Z" transform="translate(-37 -38.99)"/><path id="icon-down" class="cls-5" d="M155.49,246.75h-11l5.5,10Z" transform="translate(-37 -38.99)"/></svg>